<svg width="24" height="25" viewBox="0 0 24 25" fill="none" xmlns="http://www.w3.org/2000/svg">
<g id="emojione:flag-for-egypt">
<path id="Vector" d="M12.0002 1.25C7.08769 1.25 2.9252 4.4 1.3877 8.75H22.6127C21.0752 4.4 16.9127 1.25 12.0002 1.25Z" fill="#FF0000"/>
<path id="Vector_2" d="M12.0002 23.75C16.9127 23.75 21.0752 20.6375 22.6127 16.25H1.3877C2.9252 20.6375 7.08769 23.75 12.0002 23.75Z" fill="black"/>
<path id="Vector_3" d="M1.3875 8.75C0.975 9.9125 0.75 11.1875 0.75 12.5C0.75 13.8125 0.975 15.0875 1.3875 16.25H22.6125C23.025 15.0875 23.25 13.8125 23.25 12.5C23.25 11.1875 23.025 9.9125 22.6125 8.75H1.3875Z" fill="#F9F9F9"/>
<g id="Group">
<path id="Vector_4" d="M11.4748 9.91289C11.5873 9.83789 11.6623 9.91289 11.7373 9.98789C11.7748 10.0629 11.7748 10.2879 11.6998 10.5504C11.6623 10.7004 11.5498 10.8504 11.4748 10.9629C11.6248 10.9629 11.8123 10.9254 11.9998 10.8504C12.1873 10.9254 12.3373 10.9629 12.5248 10.9629C12.4498 10.8129 12.3748 10.5129 12.4123 10.2879C12.4123 9.95039 12.3748 9.83789 12.2998 9.76289C12.2248 9.68789 12.0373 9.65039 11.9248 9.65039C11.8498 9.65039 11.8498 9.68789 11.8498 9.68789C11.6998 9.65039 11.5873 9.65039 11.5123 9.68789C11.4373 9.76289 11.4373 9.95039 11.4748 9.91289Z" fill="white"/>
<path id="Vector_5" d="M13.9877 11.0377C13.9127 10.6252 13.5002 10.7377 13.1627 10.9252C13.0127 11.0002 12.8627 11.0752 12.7127 11.0752H12.6002C12.4127 11.0752 12.1877 11.0377 12.0002 10.9627C11.8127 11.0377 11.5877 11.0752 11.4002 11.0752H11.3252C11.1377 11.0752 10.9877 11.0002 10.8377 10.8877C10.5377 10.7377 10.1252 10.6252 10.0127 11.0002C10.0877 10.9627 10.1627 10.8877 10.2002 10.8877L10.0502 14.4877L10.1252 14.4127L10.2752 10.9252C10.3127 10.9627 10.4627 11.1127 10.5002 11.1127L10.3877 14.1502L10.5002 14.0377L10.6127 11.1502C10.6502 11.1877 10.7627 11.2627 10.8002 11.3002L10.6877 13.8127L10.9877 13.5502L11.2877 12.5377C11.0252 11.9752 11.0627 11.4877 11.0627 11.4877H11.1377C11.3252 11.4877 11.7377 11.3752 11.9252 11.2627C11.9627 11.2627 11.9627 11.2252 12.0002 11.2252C12.0002 11.2627 12.0377 11.2627 12.0752 11.3002C12.2627 11.4127 12.6752 11.5252 12.8627 11.5252H12.9377C12.9377 11.5252 12.9752 12.0127 12.7127 12.5752L12.9752 13.5502L13.2752 13.8127L13.1627 11.3377C13.2002 11.3002 13.2752 11.2252 13.3502 11.1877L13.4627 14.0002L13.5752 14.1127L13.4627 11.1127C13.5002 11.0752 13.6502 10.9627 13.6877 10.9252L13.8377 14.3752L13.9127 14.4502L13.7627 10.8877C13.8002 10.9252 13.9127 11.0002 13.9877 11.0377Z" fill="white"/>
<path id="Vector_6" d="M11.6631 11.6376V13.1001C11.6631 13.1001 11.6631 13.1376 11.7006 13.1376C11.7381 13.2126 11.8131 13.2501 11.8506 13.3251L11.9631 13.4376L12.0756 13.3251L12.2631 13.1376V11.7126C12.1506 11.6751 12.0381 11.6376 11.9631 11.5626C11.9256 11.5251 11.8131 11.5626 11.6631 11.6376Z" fill="white"/>
</g>
<path id="Vector_7" d="M13.6125 14.7129C13.6125 14.5254 13.425 14.5254 13.275 14.5629C13.2375 14.5629 13.2375 14.5629 13.2 14.6004L12.975 13.7754L14.2125 14.9754L14.0625 11.0754C14.025 10.4754 13.5375 10.6254 13.2 10.8504C13.0125 10.9629 12.8625 11.0379 12.675 11.0379C12.4125 10.5879 12.5625 9.98789 12.375 9.83789C12.3 9.76289 12.0375 9.65039 11.85 9.65039C11.7375 9.65039 11.775 9.72539 11.775 9.72539C11.5875 9.68789 11.4375 9.68789 11.3625 9.76289C11.2875 9.80039 11.3625 10.1754 11.4 10.1004C11.5125 9.98789 11.55 10.0254 11.625 10.1379C11.7 10.2504 11.55 10.7004 11.3625 11.0379C11.1375 11.0379 10.95 10.9629 10.7625 10.8504C10.3875 10.6254 9.9 10.5129 9.9 11.0754L9.75 14.9379L10.9875 13.7754L10.7625 14.5629C10.725 14.5629 10.725 14.5629 10.6875 14.5254C10.5375 14.4879 10.35 14.4879 10.35 14.6754C10.125 14.6379 10.05 14.9754 10.275 15.0504C10.275 15.1629 10.275 15.2379 10.425 15.2379C10.7625 15.3504 11.3625 15.3879 11.9625 15.3879C12.5625 15.3879 13.1625 15.3504 13.5 15.2379C13.65 15.2004 13.65 15.1254 13.65 15.0504C13.95 14.9754 13.8375 14.6379 13.6125 14.7129ZM11.7 13.1004C11.7 13.0629 11.7 13.0629 11.7 13.1004L11.6625 13.0629V11.6379C11.8125 11.6004 11.925 11.5629 12 11.4879C12.075 11.5629 12.1875 11.6004 12.3 11.6379V13.0629C12.225 13.1379 12.1875 13.2129 12.1125 13.2504L12 13.3629L11.8875 13.2504C11.8125 13.2129 11.775 13.1379 11.7 13.1004ZM11.7 10.5879C11.775 10.3254 11.775 10.1004 11.7375 10.0254C11.6625 9.95039 11.5875 9.87539 11.475 9.95039C11.4375 9.98789 11.4375 9.80039 11.5125 9.76289C11.5875 9.72539 11.7 9.72539 11.85 9.76289C11.85 9.76289 11.85 9.68789 11.925 9.72539C12.0375 9.72539 12.2625 9.80039 12.3 9.83789C12.3375 9.87539 12.4125 10.0254 12.4125 10.3629C12.4125 10.5879 12.45 10.8879 12.525 11.0379C12.375 11.0379 12.1875 11.0004 12 10.9254C11.8125 11.0004 11.6625 11.0379 11.475 11.0379C11.55 10.8879 11.6625 10.7379 11.7 10.5879ZM10.725 13.9254L10.8375 11.4129C10.8 11.3754 10.725 11.3004 10.65 11.2629L10.5 14.1129L10.3875 14.2254L10.5 11.1879C10.4625 11.1504 10.3125 11.0379 10.275 11.0004L10.125 14.4879L10.05 14.5629L10.2 10.9629C10.1625 10.9629 10.05 11.0004 10.0125 11.0754C10.125 10.7004 10.5375 10.8129 10.8375 11.0004C10.9875 11.1129 11.175 11.1504 11.325 11.1879H11.4C11.5875 11.1879 11.775 11.1504 12 11.0754C12.225 11.1504 12.4125 11.1879 12.6 11.1879H12.7125C12.8625 11.1504 13.0125 11.1129 13.1625 11.0379C13.5 10.8504 13.9125 10.7379 13.9875 11.1504C13.9125 11.1129 13.8 11.0379 13.7625 11.0379L13.9125 14.6004L13.8375 14.5254L13.6875 11.0004C13.65 11.0379 13.5 11.1879 13.4625 11.1879L13.575 14.1879L13.4625 14.0754L13.35 11.2629C13.3125 11.3004 13.2 11.3754 13.1625 11.4129L13.275 13.8879L12.975 13.6254L12.7125 12.6504C12.975 12.0879 12.9375 11.6004 12.9375 11.6004H12.8625C12.675 11.6004 12.2625 11.5254 12.075 11.3754C12.0375 11.3754 12.0375 11.3379 12 11.3004C12 11.3004 11.9625 11.3379 11.925 11.3379C11.7375 11.4504 11.325 11.5629 11.1375 11.5629H11.0625C11.0625 11.5629 11.025 12.0504 11.2875 12.6129L10.9875 13.6254L10.725 13.9254ZM12 14.6754H11.5875L11.85 13.4004C11.8875 13.4379 11.925 13.4754 12 13.5129C12.0375 13.4754 12.1125 13.4379 12.15 13.4004L12.45 14.6754H12Z" fill="#FFC700"/>
</g>
</svg>
