<svg width="694" height="715" viewBox="0 0 694 715" fill="none" xmlns="http://www.w3.org/2000/svg">
<path d="M39.3271 198.752C-1.10944 129.998 22.4785 -9.77536 39.3271 -71.0676L719.442 -172L784 99.3182L745.465 699.916C666.727 700.915 491.135 693.42 418.67 655.446C328.088 607.977 369.125 531.529 294.057 491.555C218.989 451.582 262.028 346.153 236.005 306.18C209.981 266.206 89.8728 284.694 39.3271 198.752Z" fill="#FFE7D6"/>
<path d="M23.3271 212.177C-17.1094 143.344 6.47855 3.41068 23.3271 -57.9519L703.442 -159L768 112.629L729.465 713.916C650.727 714.916 475.135 707.413 402.67 669.395C312.088 621.872 353.125 545.335 278.057 505.316C202.989 465.297 246.028 359.747 220.005 319.728C193.981 279.709 73.8728 298.218 23.3271 212.177Z" stroke="#FA8232" stroke-width="2" stroke-linecap="round" stroke-linejoin="round" stroke-dasharray="10 10"/>
</svg>
